<svg width="60" height="60" viewBox="0 0 60 60" fill="none" xmlns="http://www.w3.org/2000/svg">
<path d="M30 60C46.5685 60 60 46.5685 60 30C60 13.4315 46.5685 0 30 0C13.4315 0 0 13.4315 0 30C0 46.5685 13.4315 60 30 60Z" fill="white"/>
<path d="M22.913 41.8555C22.8834 42.0161 22.8545 42.1773 22.8256 42.3379C22.8076 42.4413 22.6926 42.4959 22.6014 42.4439C22.4093 42.3341 22.2205 42.2197 22.0342 42.1009C21.9198 42.0283 21.95 41.8542 22.0817 41.824C22.2963 41.7745 22.5134 41.7257 22.7324 41.6795C22.8384 41.657 22.9329 41.7495 22.913 41.8555Z" fill="#7209B7"/>
<path d="M30.3251 44.258C30.3251 44.3409 30.2589 44.4083 30.1761 44.4096C30.117 44.4103 30.0585 44.4109 30 44.4109C29.6564 44.4109 29.3146 44.3994 28.9767 44.3756C28.8945 44.3698 28.8315 44.2985 28.8354 44.2163C28.8758 43.3477 28.9337 42.4799 29.0075 41.6107C29.0152 41.5201 29.1007 41.4559 29.19 41.4745L30.1876 41.6801C30.2576 41.6942 30.3084 41.7559 30.309 41.8272C30.3193 42.6886 30.3238 43.4936 30.3251 44.258Z" fill="#7209B7"/>
<path d="M37.8276 42.1882C37.4383 42.4291 37.0375 42.6527 36.6257 42.8576C36.537 42.9019 36.4297 42.8492 36.4098 42.7516C36.3424 42.4208 36.2717 42.0912 36.1985 41.7636C36.1747 41.6557 36.2704 41.5587 36.3784 41.5818C36.8557 41.6833 37.324 41.7931 37.7852 41.9107C37.9156 41.9441 37.942 42.1169 37.8276 42.1882Z" fill="#7209B7"/>
<path d="M16.1519 24.0739C16.1949 23.9647 16.2386 23.8567 16.2848 23.7495C16.2392 23.8567 16.1955 23.9653 16.1519 24.0739Z" fill="#7209B7"/>
<path d="M44.9211 29.5503C44.9211 32.0576 44.3018 34.421 43.2078 36.4946C41.5414 35.9576 39.8545 35.5118 38.1598 35.1617C38.0602 35.1411 37.9607 35.1205 37.8611 35.1013C37.7088 35.0704 37.556 35.0409 37.4031 35.012C37.1037 34.9554 36.8043 34.9015 36.5043 34.8514C35.9802 34.7627 35.456 34.6837 34.9318 34.6143C34.8656 34.6053 34.8001 34.597 34.7345 34.5886C34.6677 34.5803 34.6003 34.5758 34.5335 34.5758C34.5168 34.5758 34.5001 34.5758 34.4834 34.5764C34.4185 34.3927 34.3221 34.2193 34.1969 34.0657C34.0992 33.945 33.9823 33.8357 33.8493 33.7439C33.8198 33.7227 33.7889 33.7028 33.7575 33.6835L31.8052 32.5021L31.6954 32.4353C31.459 32.2921 31.1917 32.2086 30.9168 32.1906C30.8808 32.1886 30.8442 32.1874 30.8076 32.1874C30.7709 32.1874 30.7337 32.1886 30.6971 32.1912C30.6187 32.1957 30.5422 32.206 30.4664 32.2214C30.1073 32.2934 29.7836 32.4777 29.5408 32.7469C29.4495 32.727 29.3551 32.7167 29.2587 32.7167C29.2041 32.7167 29.1482 32.7205 29.0936 32.727C28.0189 32.8619 26.9525 33.0482 25.9221 33.282C25.9196 33.282 25.9176 33.282 25.9151 33.2833C25.4628 33.3854 25.1043 33.7092 24.956 34.1492C24.9264 34.236 24.9065 34.3246 24.8956 34.4133C24.8827 34.5173 24.8827 34.6214 24.8949 34.7235C24.7831 34.6773 24.6662 34.6439 24.5461 34.6227C24.4485 34.6053 24.3482 34.5963 24.2467 34.5963C24.1716 34.5963 24.0958 34.6015 24.0219 34.6111C23.887 34.6291 23.7521 34.6471 23.6178 34.6664C23.4887 34.6844 23.3602 34.703 23.2311 34.7223C23.1219 34.7383 23.0121 34.755 22.9028 34.7724C22.6799 34.8071 22.457 34.8437 22.2341 34.8829C22.0472 34.9143 21.8602 34.9477 21.6733 34.9824C21.5712 35.0011 21.4684 35.021 21.3662 35.0409C19.7866 35.3441 18.2223 35.7315 16.6767 36.2011C15.6765 34.1987 15.1138 31.94 15.1138 29.5503C15.1138 27.8788 15.3894 26.2709 15.8969 24.7702C15.9553 24.5974 16.017 24.4253 16.0819 24.2557C16.1037 24.1985 16.1255 24.142 16.1474 24.0861C16.1493 24.0816 16.1506 24.0777 16.1519 24.0739C16.1956 23.9653 16.2393 23.8567 16.2849 23.7495C18.2371 19.121 22.4634 15.6874 27.5634 14.8477C27.8037 14.8079 28.0465 14.7739 28.2913 14.7456C28.8579 14.6801 29.4335 14.6467 30.0174 14.6467C38.2485 14.6467 44.9211 21.3193 44.9211 29.5503Z" fill="#7209B7"/>
<path d="M38.7593 33.9314C38.6738 34.1061 38.5768 34.2757 38.492 34.4505C38.3783 34.6862 38.2781 34.9284 38.1599 35.1616C38.0603 35.141 37.9608 35.1205 37.8612 35.1012C37.709 35.0704 37.5561 35.0408 37.4032 35.0119C37.1038 34.9554 36.8045 34.9014 36.5045 34.8513C35.9803 34.7627 35.4561 34.6837 34.9319 34.6143C34.8657 34.6053 34.8002 34.5969 34.7346 34.5886C34.6678 34.5802 34.6004 34.5757 34.5336 34.5757C34.5169 34.5757 34.5002 34.5757 34.4835 34.5764C34.4186 34.3926 34.3222 34.2192 34.197 34.0657C34.0993 33.9449 33.9824 33.8357 33.8494 33.7438C33.8199 33.7226 33.789 33.7027 33.7576 33.6834L31.8053 32.5021L31.6955 32.4353C31.4591 32.292 31.1918 32.2085 30.9169 32.1905C30.8809 32.1886 30.8443 32.1873 30.8077 32.1873C30.771 32.1873 30.7338 32.1886 30.6972 32.1911C30.6188 32.1956 30.5424 32.2059 30.4666 32.2213C30.1075 32.2933 29.7837 32.4777 29.5409 32.7468C29.4496 32.7269 29.3552 32.7166 29.2588 32.7166C29.2042 32.7166 29.1484 32.7205 29.0937 32.7269C28.019 32.8618 26.9526 33.0481 25.9222 33.2819C25.9197 33.2819 25.9177 33.2819 25.9152 33.2832C25.4629 33.3854 25.1045 33.7091 24.9561 34.1492C24.9265 34.2359 24.9066 34.3246 24.8957 34.4132C24.8828 34.5173 24.8828 34.6213 24.895 34.7235C24.7833 34.6772 24.6663 34.6438 24.5462 34.6226C24.4486 34.6053 24.3484 34.5963 24.2469 34.5963C24.1717 34.5963 24.0959 34.6014 24.022 34.6111C23.8871 34.6291 23.7522 34.647 23.6179 34.6663C23.4888 34.6843 23.3603 34.7029 23.2312 34.7222C23.122 34.7383 23.0122 34.755 22.903 34.7723C22.68 34.807 22.4571 34.8436 22.2342 34.8828C22.0473 34.9143 21.8603 34.9477 21.6734 34.9824C21.5713 35.001 21.4685 35.0209 21.3663 35.0408C21.3689 35.0196 21.3747 34.9991 21.3818 34.9804C21.4755 34.7415 21.4717 34.4967 21.41 34.2577C21.3599 34.0644 21.2758 33.8787 21.2025 33.6918C21.083 33.3854 20.9597 33.0802 20.8383 32.7751C20.7747 32.6132 20.8145 32.4577 20.8794 32.3094C21.004 32.0248 21.1421 31.746 21.2064 31.4395C21.2289 31.3355 21.2404 31.2288 21.2507 31.1235C21.2603 31.0213 21.2681 30.9186 21.2655 30.8171C21.2636 30.729 21.2456 30.6423 21.2359 30.5543C21.225 30.4425 21.2327 30.3353 21.3207 30.2498C21.4659 30.1085 21.4929 29.9196 21.5276 29.7346C21.5443 29.6485 21.5558 29.5605 21.5603 29.4725C21.5706 29.265 21.5179 29.0723 21.4242 28.8873C21.367 28.7749 21.3895 28.6837 21.5 28.6162C21.6439 28.5282 21.7749 28.4183 21.8244 28.2436C21.8327 28.216 21.8385 28.1864 21.8385 28.1582C21.8398 28.0059 21.8404 27.8537 21.8385 27.7014C21.8366 27.5582 21.9008 27.4458 22.0081 27.3629C22.1758 27.2344 22.3466 27.1091 22.4648 26.9312C22.5394 26.8181 22.601 26.6941 22.6531 26.5689C22.7469 26.3415 22.8194 26.1051 22.9177 25.8789C23.009 25.6702 23.1696 25.5141 23.3745 25.4183C23.8055 25.2166 24.243 25.0297 24.6734 24.8273C24.9715 24.6873 25.2631 24.5331 25.5554 24.3815C25.7565 24.2774 25.9531 24.1657 26.1535 24.0603C26.2524 24.0083 26.3571 23.9672 26.4548 23.9132C26.4933 23.8914 26.5325 23.8541 26.5505 23.8143C26.6334 23.628 26.7098 23.4385 26.7875 23.2496C26.8967 22.9849 27.0374 22.737 27.1967 22.5006C27.2398 22.4376 27.2391 22.3856 27.216 22.322C27.1248 22.0676 27.0336 21.8132 26.9443 21.5582C26.8415 21.2627 26.812 20.9562 26.8325 20.646C26.8402 20.5168 26.8627 20.3864 26.9404 20.2753C27.0503 20.1173 27.2038 20.0318 27.401 20.0126C27.401 19.6451 27.3991 19.2867 27.4023 18.9276C27.4042 18.6873 27.464 18.4592 27.57 18.244C27.6156 18.1509 27.674 18.0642 27.7216 17.9723C27.7312 17.953 27.7306 17.9177 27.7197 17.8991C27.6914 17.8515 27.6535 17.8091 27.6207 17.7642C27.507 17.6055 27.5096 17.5567 27.6503 17.432C27.7254 17.3646 27.8025 17.2971 27.8867 17.2425C28.0698 17.1243 28.2818 17.0897 28.4899 17.0505C28.5676 17.0363 28.6126 17.0183 28.6499 16.9335C28.6826 16.8597 28.7745 16.8025 28.8522 16.7582C29.0012 16.6734 29.1573 16.5989 29.3134 16.5269C29.3725 16.5006 29.44 16.4877 29.5055 16.4813C29.6578 16.4652 29.8113 16.4601 29.9636 16.444C30.0227 16.4383 30.0824 16.3939 30.1383 16.401C30.2745 16.4177 30.4087 16.4524 30.543 16.4832C30.6066 16.498 30.6683 16.5218 30.7319 16.5385C30.7466 16.5423 30.7717 16.5391 30.782 16.5288C30.8719 16.444 30.9721 16.4575 31.0781 16.4909C31.2336 16.5404 31.3595 16.6355 31.4828 16.7376C31.6055 16.8398 31.7353 16.9348 31.8522 17.0421C31.9364 17.1198 32.0077 17.2117 32.0803 17.301C32.1779 17.4211 32.2711 17.5445 32.3642 17.6678C32.3822 17.6903 32.397 17.7166 32.4066 17.7443C32.4651 17.9055 32.5961 18.0064 32.7162 18.1143C32.8338 18.2209 32.8967 18.3584 32.9533 18.4997C33.0336 18.6989 33.0683 18.9083 33.0747 19.1216C33.083 19.3894 33.0869 19.6573 33.0927 19.9252C33.0933 19.9413 33.0869 19.9592 33.0914 19.9734C33.0972 19.9946 33.1055 20.0248 33.1216 20.0318C33.3156 20.1198 33.4351 20.2644 33.4666 20.4764C33.4813 20.574 33.4897 20.6729 33.5 20.7712C33.5154 20.9183 33.4723 21.0571 33.4338 21.1959C33.3638 21.4458 33.2976 21.6963 33.2212 21.9443C33.1698 22.1126 33.1042 22.2777 33.0445 22.444C33.0406 22.4543 33.0355 22.4659 33.0278 22.471C32.8987 22.5436 32.9488 22.6502 32.977 22.7505C33.0194 22.8976 33.0496 23.0511 33.1113 23.1899C33.2128 23.4179 33.3259 23.6428 33.455 23.856C33.5064 23.9415 33.6047 24.0076 33.6946 24.0597C33.8462 24.1483 34.012 24.2126 34.1655 24.298C34.6171 24.5473 35.0623 24.8074 35.5158 25.0528C35.8524 25.2353 36.1987 25.4023 36.5411 25.5751C36.8205 25.7171 37.0396 25.9162 37.1758 26.2066C37.2914 26.4532 37.3833 26.7128 37.5599 26.9286C37.6781 27.0725 37.7905 27.2222 37.8959 27.3757C37.9473 27.4509 37.9807 27.5395 38.0154 27.6256C38.1015 27.8389 38.2788 27.9655 38.4599 28.0817C38.598 28.1704 38.5897 28.2378 38.5441 28.338C38.4464 28.5539 38.4098 28.7845 38.3616 29.0126C38.3424 29.1038 38.3186 29.1956 38.3167 29.2875C38.3154 29.3395 38.3398 29.407 38.3764 29.4417C38.4381 29.4989 38.476 29.5618 38.4734 29.6408C38.4696 29.7558 38.4535 29.8702 38.4439 29.9852C38.4374 30.0597 38.4612 30.1201 38.5261 30.1637C38.6655 30.2588 38.7066 30.3648 38.6681 30.528C38.6173 30.7419 38.5878 30.9577 38.5884 31.1787C38.5884 31.392 38.5672 31.6059 38.5749 31.8192C38.5845 32.0672 38.607 32.3158 38.6404 32.5618C38.679 32.8509 38.7355 33.1374 38.785 33.4246C38.792 33.4631 38.8055 33.501 38.8171 33.5389C38.8601 33.6789 38.8197 33.8081 38.7593 33.9314Z" fill="white"/>
<path d="M38.4682 33.494C38.3262 32.6698 38.2787 31.8372 38.314 31.0021C38.2787 30.7985 38.463 30.5094 38.3243 30.3501C38.0776 30.2203 38.1052 30.0256 38.2106 29.7995C38.2369 29.7263 38.233 29.6678 38.1534 29.6229C37.8425 29.4038 38.2305 28.6869 38.235 28.3438C38.2285 28.1576 37.9626 28.0593 37.8649 27.9044C37.6941 27.7516 37.7268 27.4766 37.5386 27.3379C37.017 26.9685 37.0639 26.1533 36.4542 25.888C35.3846 25.4409 34.4429 24.7355 33.3617 24.3218C33.1485 24.0346 33.0971 23.6158 32.862 23.3171C32.7309 23.1044 32.7258 22.8481 32.6288 22.6201C32.5999 22.5301 32.5562 22.4421 32.6602 22.3798C33.0251 22.0663 32.9365 21.4997 33.162 21.0963C33.3148 20.7481 33.2146 20.1815 32.7039 20.3595C32.8228 19.6593 32.9679 18.5569 32.2909 18.0905C31.9562 17.5734 31.5309 16.9657 30.927 16.7723C31.1268 16.8533 31.13 17.0428 31.1846 17.204C30.8879 16.9072 30.5371 16.7177 30.1189 16.6233C30.1253 16.6689 30.1298 16.6991 30.1343 16.7312H29.4778C29.4746 16.7402 29.4714 16.7492 29.4682 16.7582C29.6512 16.8289 29.8202 16.9188 29.9474 17.0916C29.6288 17.0537 29.217 16.7235 28.9517 16.9638C29.023 16.9785 29.0917 16.9933 29.1604 17.0074C29.1598 17.0132 29.1592 17.0177 29.1585 17.0229C29.1168 17.0261 29.0757 17.0293 29.0339 17.0325C29.0333 17.0402 29.0333 17.0479 29.0333 17.0563C29.136 17.0839 29.2671 17.0248 29.3525 17.1571C28.8213 17.2708 28.2855 17.2882 27.8288 17.6119C27.9971 17.6659 28.1397 17.7115 28.2958 17.7616C28.1744 17.8612 28.0652 17.9505 27.9772 18.0231C27.5712 18.7413 27.6894 19.5507 27.7016 20.3511C26.6127 20.152 27.2577 21.5299 27.3964 22.0715C27.4337 22.2314 27.4645 22.2603 27.6784 22.4794C27.1697 22.8989 26.9159 23.5811 26.7309 24.1972C26.7193 24.2473 26.6924 24.2768 26.6403 24.2871C25.7853 24.5171 25.1108 25.1608 24.2519 25.4055C23.4932 25.6952 23.145 25.7942 22.9086 26.6319C22.7557 27.0199 22.4981 27.3597 22.1705 27.6154C22.1114 27.6597 22.0819 27.7053 22.0831 27.7766C22.1121 28.1736 22.1159 28.57 21.7375 28.8025C21.6341 28.9368 21.8384 29.1526 21.7947 29.3152C21.7787 29.6119 21.7305 29.9074 21.6926 30.2042C21.6797 30.3064 21.6341 30.3892 21.5339 30.4342C21.5178 30.4413 21.4999 30.474 21.5037 30.4882C21.638 31.146 21.4234 31.8237 21.1465 32.4154C21.1003 32.5143 21.1003 32.6004 21.1408 32.7025C21.3315 33.4092 21.8718 34.1081 21.6932 34.8584C21.681 34.9047 21.6739 34.9458 21.6733 34.9824C21.8602 34.9477 22.0472 34.9143 22.2341 34.8828C22.0131 34.1094 22.6979 32.7205 21.5712 32.4873C21.8917 31.9509 22.0613 31.3817 22.0407 30.758C22.1358 30.2338 22.2328 29.7019 22.2058 29.1635C22.1795 28.8526 22.5039 28.7961 22.6986 28.6464C22.9799 28.4865 23.3114 28.7678 23.5086 28.9612C23.5151 28.9535 23.5215 28.9458 23.5279 28.9381C23.2324 28.7152 22.9266 28.2025 22.529 28.5173C22.2251 27.3044 23.878 26.804 24.7041 27.467C25.0921 27.5871 26.1553 28.9869 25.8624 29.2895C25.6954 29.3961 25.6973 29.3993 25.5829 29.2374C25.3491 28.9175 25.0285 28.683 24.6836 28.4974C24.8718 28.7312 25.1255 28.9149 25.236 29.2336C24.6868 28.8077 24.1684 28.3683 23.5118 28.1152C23.4386 28.4897 25.0221 29.3402 25.3536 29.6139C25.2707 29.68 25.184 29.6948 25.0934 29.6948C24.5262 29.6492 24.6527 30.3044 24.3418 30.1458C24.0707 30.034 23.7797 30.007 23.499 29.9351C23.3178 30.0006 23.1682 30.0346 23.0076 29.8573C23.5446 29.267 23.3776 29.3974 23.9326 29.7173C23.8022 29.6113 23.684 29.5143 23.5645 29.4173C23.6018 28.8873 21.8493 30.5556 22.3684 30.8967C22.3838 30.6571 22.457 30.4297 22.5868 30.2209L22.6125 30.2267C22.6517 30.5164 22.4924 30.9025 22.7936 31.0882C22.6851 30.7085 22.7333 30.3019 22.8874 29.9704C22.8958 29.9736 22.9054 29.9768 22.9138 29.9794C22.8348 30.4008 22.5611 30.9539 23.1534 31.1029C23.1585 31.0965 23.163 31.0901 23.1675 31.0837C22.1538 30.0745 23.8684 30.0944 24.5114 30.2955C24.2994 30.6436 24.0046 30.9379 23.9969 31.3708C24.7876 30.4541 25.8707 30.6668 26.8375 31.1569L26.8549 31.1396C26.8285 31.0952 26.8028 31.0503 26.7765 31.0059C26.7707 31.0092 26.7649 31.013 26.7592 31.0162C26.7778 31.0426 26.7971 31.0683 26.8163 31.094C26.8112 31.1004 26.8067 31.1062 26.8022 31.1126C26.6885 31.0522 26.6011 30.9411 26.4566 30.9385C26.4611 30.9282 26.4649 30.9179 26.4694 30.9077C26.5369 30.9237 26.6037 30.9398 26.6712 30.9552C26.6724 30.9507 26.6737 30.9462 26.6757 30.9417C26.4701 30.8601 26.2427 30.8955 26.0679 30.7304C26.3789 30.6745 26.7958 30.6269 26.9127 30.9899C27.0148 31.1813 26.8285 31.1698 26.7193 31.2642C26.7405 31.261 26.7617 31.2571 26.8041 31.2501C25.9793 32.1841 25.0536 33.0462 23.9146 33.5691C23.6313 33.7092 23.4193 33.3597 23.181 33.2486C23.4033 33.4297 23.5664 33.8788 23.9076 33.7676C24.7279 33.5967 25.3022 32.9897 25.9735 32.5599C25.3742 33.1451 24.9367 33.8788 24.2757 34.4023C23.8876 34.6779 23.4026 34.4094 23.0371 34.2192C23.0333 34.2244 23.0288 34.2295 23.0249 34.2353C23.2228 34.4492 23.4213 34.5886 23.6178 34.6663C23.7521 34.6471 23.887 34.6291 24.0219 34.6111C24.0958 34.6015 24.1716 34.5963 24.2467 34.5963C24.3482 34.5963 24.4485 34.6053 24.5461 34.6227C24.6649 34.5687 24.7819 34.4974 24.8956 34.4139C24.9065 34.3246 24.9264 34.2359 24.956 34.1492C25.1043 33.7092 25.4628 33.3854 25.9151 33.2832C25.9176 33.2826 25.9196 33.282 25.9221 33.282C26.2517 32.8021 26.524 32.2978 26.7123 31.9316C26.9153 31.3413 27.5069 31.1922 28.0709 31.2777C28.7679 31.3021 29.3769 30.8942 30.0328 30.722C30.593 30.5209 31.6221 30.4079 31.6221 31.2539C31.651 31.3818 31.563 31.507 31.4313 31.5314C31.1037 31.7357 30.778 31.9734 30.4664 32.2214C30.5422 32.2059 30.6187 32.1957 30.6971 32.1912C31.0305 31.9773 31.3337 31.8032 31.3176 31.9137C31.184 32.0068 31.0504 32.0987 30.9168 32.1905C31.1917 32.2085 31.459 32.292 31.6954 32.4353L31.8052 32.5021C31.9986 32.4655 32.1919 32.4321 32.384 32.3903C32.217 32.4179 32.0127 32.4327 31.8534 32.4244C32.9936 31.9798 34.1834 31.9785 35.3911 32.1931C34.8842 31.8571 34.2688 31.6239 33.6624 31.5963C34.0902 30.8248 34.723 30.2171 35.2857 29.5464C34.9086 29.7764 34.5971 30.0957 34.2688 30.3886C34.2572 30.3803 34.2457 30.3713 34.2341 30.3635C34.3799 30.0167 34.5701 29.7122 34.7949 29.4083C34.193 29.7719 34.0215 30.4304 33.7356 31.0169C33.7253 31.013 33.7144 31.0079 33.7035 31.004C33.9393 29.8117 34.3022 28.3676 35.6031 27.9578C36.2583 27.6501 37.43 27.6096 37.7153 28.4203C37.7082 28.4248 37.7005 28.4293 37.6928 28.4344C36.9277 27.7413 36.4575 27.7271 35.6904 28.4184C35.6975 28.4293 35.7052 28.4409 35.7129 28.4518C35.8857 28.3798 36.0592 28.3072 36.2326 28.2353C36.2384 28.2443 36.2448 28.2539 36.2512 28.2635C36.1183 28.4505 36.0097 28.6683 35.8395 28.8224C35.7585 28.8796 35.738 28.9638 35.7225 29.0749H36.1356C35.9307 29.3967 36.1575 29.7308 36.4613 29.8779C36.8365 30.1226 37.3902 29.6922 37.2303 29.2618C37.202 29.1777 37.2103 29.116 37.2849 29.0569C37.3433 28.9959 37.4673 28.9027 37.423 28.8083C37.2373 28.6188 37.2129 28.3965 37.1217 28.1473C37.3234 28.2687 37.405 28.5301 37.6337 28.5841C37.6542 28.8597 37.441 29.0916 37.4891 29.3518C37.6536 29.7423 37.3395 29.9254 37.0594 30.131C37.238 30.0032 37.6073 30.4156 37.5373 30.5865C37.4172 31.3066 37.3626 32.0241 37.4416 32.752C37.4705 32.8972 37.4557 33.0064 37.3067 33.104C37.0305 33.2852 36.8339 33.5576 36.6103 33.7985C36.3046 34.04 36.2789 34.5488 35.9512 34.7274C35.1765 34.5314 34.5412 33.9372 33.7844 33.6803C33.8056 33.7014 33.8275 33.7227 33.8493 33.7439C33.9823 33.8357 34.0992 33.9449 34.1969 34.0657C34.4249 34.2661 34.6709 34.4556 34.9318 34.6143C35.456 34.6837 35.9801 34.7627 36.5043 34.8513C36.9489 34.5449 37.236 33.8884 37.5399 33.4914C37.6632 33.2845 37.6677 33.0719 37.6388 32.8406C37.5566 32.1713 37.5534 31.5012 37.6767 30.8357C37.9844 30.0603 37.3819 30.2325 37.6009 29.849C37.624 29.8111 37.6619 29.7751 37.5849 29.7539C37.536 29.6113 37.5026 29.4102 37.6048 29.258C37.6536 29.1629 37.6356 29.0132 37.6542 28.9027C37.6632 28.9021 37.6716 28.9021 37.6799 28.9015C37.6889 29.2034 37.7467 29.5349 37.6478 29.8246C37.5515 30.0244 37.7782 30.1869 37.872 30.3424C37.9157 30.395 37.9388 30.4406 37.9292 30.5094C37.8437 31.0811 37.759 31.6567 37.8129 32.2361C37.8457 32.5773 37.8579 32.9274 37.9324 33.2621C37.9793 33.3732 37.9639 33.4785 37.917 33.5845C37.8039 33.8447 37.7268 34.1145 37.6664 34.392C37.6138 34.6149 37.5193 34.8186 37.4031 35.0119C37.556 35.0409 37.7088 35.0704 37.8611 35.1012C38.1309 34.5925 38.5048 33.9276 38.4682 33.494ZM33.3078 24.8421C33.6412 24.9706 33.3637 25.2815 33.2056 25.4524C33.239 25.252 33.2724 25.0522 33.3078 24.8421ZM32.7939 20.5252C33.2005 20.3505 33.0078 21.2858 32.8825 21.4496C32.8825 21.4509 32.8819 21.4522 32.8819 21.4535L32.8799 21.4516C32.8709 21.4811 32.8619 21.5113 32.8504 21.5492C32.8035 21.4458 32.8356 21.237 32.9326 21.0655C32.9249 21.1862 32.8176 21.3494 32.8799 21.4516C32.8812 21.4509 32.8819 21.4503 32.8825 21.4496C32.9551 21.104 33.1587 20.3492 32.6275 20.9743C32.6223 20.8805 32.6178 20.8002 32.6121 20.6877C32.6538 20.6498 32.7187 20.5805 32.7939 20.5252ZM32.7238 21.3783C32.7251 21.1907 32.8221 21.0353 32.9326 20.8862C32.8619 21.0513 32.7919 21.2177 32.7238 21.3783ZM32.8176 21.6796C32.7913 21.9083 32.6975 22.092 32.5491 22.2513C32.578 22.0368 32.6378 21.8364 32.8176 21.6796ZM28.0819 21.2402C28.1493 20.7751 28.572 20.4526 28.6915 20.0017C28.8116 19.8552 29.3686 20.0987 29.5247 20.1693C29.5003 20.1751 29.4816 20.1803 29.4585 20.186C30.1735 20.6498 31.0819 20.1957 31.8103 20.5959C31.8148 20.5901 31.8206 20.5843 31.8251 20.5785C31.7686 20.3897 31.5688 20.2471 31.6221 20.037C31.6324 20.0319 31.6433 20.0267 31.6536 20.0216C32.0031 20.3286 32.366 20.7526 32.4097 21.2299C32.3808 21.6899 32.4746 22.2642 32.0185 22.5481C31.8322 22.6618 31.8071 22.9349 31.6041 23.0319C31.4789 23.1648 31.5688 23.4134 31.4994 23.5747C31.2348 23.3987 31.0292 23.1783 30.9399 22.8552C30.9707 22.8411 31.0061 22.825 31.042 22.8083C31.0395 22.8 31.0369 22.7916 31.0343 22.7839C30.8307 22.8513 30.5994 22.9259 30.4979 23.1308C30.5024 23.1385 30.5069 23.1456 30.5114 23.1526C30.6136 23.1083 30.7125 23.0556 30.8243 23.0434C30.8692 23.4925 30.6842 23.2092 30.4748 23.3653C30.2088 23.5991 29.9082 23.3685 29.6596 23.2342C29.6615 23.2606 29.6641 23.301 29.6667 23.3511C29.481 23.1411 29.6005 22.9233 29.9307 23.1096C29.7682 22.9284 29.5754 22.7338 29.4489 23.0678C29.2799 23.3094 29.5414 23.5143 29.7534 23.5817C29.4778 23.6197 29.1861 23.7089 28.9208 23.7706C28.9273 23.5483 29.2427 23.5426 29.2382 23.2811C29.1007 23.3903 28.9812 23.4854 28.8437 23.5946C28.6549 22.5745 27.9444 22.5648 28.0819 21.2402ZM31.7782 23.0447C31.863 22.8391 31.9819 22.6618 32.1373 22.507C32.1386 22.6683 31.9003 23.0299 31.7782 23.0447ZM32.0076 23.1012C32.0095 23.3203 31.9838 23.5336 31.8778 23.7301C31.926 23.5214 31.9061 23.2991 32.0076 23.1012ZM30.5769 28.1794C30.5294 27.7316 30.5172 27.3128 30.7934 26.9299C30.927 26.9762 31.051 27.0199 31.1917 27.0687C30.99 27.5004 30.7915 27.9263 30.5924 28.3522H30.5769C30.5769 28.2944 30.5795 28.2366 30.5769 28.1794ZM30.0694 24.5762C29.9744 24.5614 29.8806 24.5389 29.7765 24.5184C29.8382 24.4066 29.8876 24.2871 30.011 24.3244C30.239 24.3533 30.4581 24.3513 30.6874 24.3513C31.069 24.5331 30.1966 24.6449 30.0694 24.5762ZM30.2667 28.4614C30.2577 28.4633 30.2487 28.4646 30.2397 28.4665C29.9339 27.8094 29.6281 27.1522 29.3095 26.468C29.9628 26.876 30.1999 27.7201 30.2667 28.4614ZM29.6326 23.7886C29.7245 23.7186 29.869 23.6762 29.9056 23.7051C29.8093 23.7353 29.7213 23.7616 29.6326 23.7886ZM29.9647 24.1516C30.1825 24.086 30.4009 24.0565 30.6213 24.14C30.4041 24.2383 30.1844 24.1972 29.9647 24.1516ZM30.8018 23.567C30.963 23.4719 31.0343 23.3434 30.9964 23.1578C31.0947 23.3839 31.3292 23.5047 31.441 23.7224C31.2303 23.6588 31.0414 23.5387 30.8018 23.567ZM28.148 23.5284C28.1352 23.3813 28.123 23.2342 28.1095 23.0743C28.2367 23.1661 28.2393 23.2053 28.148 23.5284ZM27.4658 21.5955C27.4575 21.5961 27.4491 21.5967 27.4408 21.5967C27.2493 21.3269 27.0245 20.3081 27.6328 20.5188C27.7176 20.5567 27.7934 20.6081 27.8172 20.7044C27.8108 20.7089 27.8043 20.7128 27.7986 20.7173C27.7375 20.6543 27.6906 20.5599 27.5692 20.6139C27.7921 20.6807 27.7986 20.8567 27.8133 21.0282C27.8063 21.0334 27.7986 21.0391 27.7915 21.0443C27.3534 20.4244 27.2455 20.8368 27.3791 21.3558C27.3874 21.3558 27.3964 21.3552 27.4048 21.3552V20.8676C27.4163 20.8657 27.4292 20.8638 27.4408 20.8618C27.5821 21.1143 27.6328 21.3976 27.7131 21.686C27.5724 21.5865 27.5705 21.3141 27.5063 21.149C27.4928 21.1503 27.4793 21.1516 27.4658 21.1528V21.5955ZM27.638 22.2012C27.5647 22.0079 27.462 21.8209 27.4787 21.6089C27.4844 21.6077 27.4902 21.6064 27.4954 21.6051C27.6103 21.8119 27.823 21.9854 27.814 22.2385C27.8056 22.3715 27.6604 22.2777 27.638 22.2012ZM25.775 27.562C25.6093 27.2383 25.4647 26.9042 25.1956 26.6505C25.1866 26.6576 25.1776 26.6646 25.1686 26.6717C25.1917 26.7077 25.2463 26.7501 25.2547 26.788C25.2367 26.9344 25.3542 27.0057 25.43 27.0931C25.4859 27.1567 25.5187 27.228 25.5052 27.2974C25.4705 27.4702 25.5585 27.6083 25.5971 27.7657C25.4191 27.5762 25.3093 27.3295 25.0986 27.1702C25.0909 27.174 25.0825 27.1785 25.0748 27.1824C25.1082 27.2871 25.1416 27.3912 25.1789 27.5094C24.5538 27.3 23.8061 26.7179 23.154 27.0892C23.4116 26.6948 23.4611 26.1006 23.9429 25.9419C24.9682 25.6252 25.8322 24.9424 26.8941 24.7387C26.9133 24.8197 26.8433 25.0824 26.9384 25.0728C26.9583 25.1055 26.9654 25.2102 26.9724 25.2385C26.8992 25.2481 26.8311 25.2565 26.7624 25.2655C26.7193 25.1453 26.7296 24.9019 26.7817 24.8396C26.7007 24.819 26.6281 24.855 26.5909 24.9263C26.4714 25.0002 26.3217 25.0445 26.1932 25.1074C26.1958 25.1184 26.199 25.1286 26.2022 25.1396C26.3365 25.1511 26.5093 25.0034 26.6069 25.1351C26.641 25.1922 26.6493 25.3008 26.6056 25.3509C26.2992 25.7004 26.2189 26.1314 26.1624 26.5708C26.0519 27.316 26.3577 28.0477 26.26 28.7922C26.2536 28.7942 26.2472 28.7955 26.2401 28.7974C26.145 28.3631 25.9928 27.9488 25.775 27.562ZM26.4437 29.3049C26.702 29.2522 26.8028 29.7102 26.9686 29.8625C26.9551 29.8715 26.9423 29.8811 26.9288 29.8901C27.0213 30.0533 27.2127 30.1162 27.3213 30.2955H26.9962C26.7823 30.0475 26.5112 29.7982 26.2986 29.5413C26.1572 29.3916 26.0223 29.5991 25.8553 29.6274C25.9613 29.4443 26.2626 29.4179 26.4437 29.3049ZM25.2984 29.9017C25.5026 29.804 25.7333 29.6331 25.8598 29.9576C25.7108 29.9903 25.5688 30.0218 25.4268 30.0533C25.4275 30.0578 25.4281 30.0629 25.4288 30.0674C25.5887 30.0411 25.7487 30.0154 25.908 29.9897C25.9118 29.9987 25.9151 30.0083 25.9189 30.0173C25.7101 30.1355 25.4037 30.2852 25.2765 29.9845C25.2669 29.964 25.2804 29.9107 25.2984 29.9017ZM25.1365 29.8901C25.0305 29.9852 24.936 30.07 24.8326 30.1625C24.8024 29.9845 24.963 29.8785 25.1365 29.8901ZM24.9232 30.5865C24.8326 30.5967 24.7465 30.6533 24.6553 30.6231C24.7176 30.4381 25.0093 30.4426 25.1512 30.5659C25.0645 30.573 24.9932 30.5755 24.9232 30.5865ZM24.9502 30.3237C25.1217 30.0713 25.3465 30.3732 25.5457 30.44C25.308 30.5113 25.1474 30.3411 24.9502 30.3237ZM25.7879 30.3995C25.7378 30.3918 25.696 30.3346 25.6562 30.3051C25.7853 30.2331 25.9054 30.1663 26.0416 30.0912C26.0846 30.1869 26.1322 30.2929 26.19 30.4227C26.039 30.4156 25.9112 30.4188 25.7879 30.3995ZM26.8395 30.6051C26.7315 30.5164 26.6056 30.4721 26.4714 30.4438C26.2767 30.2717 26.1759 29.982 25.9928 29.7854C26.2594 29.3576 26.8729 30.5608 27.036 30.758C26.9782 30.7137 26.9076 30.6616 26.8395 30.6051ZM27.8082 30.7882C27.3335 30.7079 27.3091 30.9424 27.0913 30.3552C27.1799 30.4034 27.2846 30.3411 27.3637 30.4124C27.7607 30.2865 27.7009 30.4606 27.8249 30.7708C27.8191 30.7766 27.8133 30.7824 27.8082 30.7882ZM28.8168 30.6713C28.2168 30.1695 28.1846 30.2653 27.5602 30.0231C27.5904 29.9987 27.6046 29.9871 27.6373 29.9601C27.5776 29.9556 27.5397 29.9531 27.4819 29.9486C27.5127 29.8561 27.5679 29.7603 27.4028 29.7513C27.4003 29.7918 27.3977 29.8329 27.3951 29.8728C27.3881 29.8779 27.3816 29.8824 27.3746 29.8875C26.6814 29.3633 27.62 29.6563 27.5204 28.4402C27.5121 28.4402 27.5037 28.4383 27.4947 28.437C27.444 28.5912 27.3932 28.7453 27.3425 28.8995C27.336 28.8995 27.3296 28.8989 27.3225 28.8982C27.3206 28.4466 27.3084 27.9963 27.1619 27.5595C27.1889 28.0567 27.0174 28.5012 26.7566 28.9207C26.8497 28.4434 26.9371 27.9057 26.7052 27.4561C26.72 27.5184 26.7303 27.5601 26.745 27.6224C26.4553 26.971 26.3538 25.8128 27.011 25.385C27.6482 27.1567 28.4365 28.8597 29.2382 30.5691C29.1039 30.6179 28.9697 30.6809 28.8168 30.6713ZM29.5793 30.061C29.5677 30.1381 29.5497 30.2145 29.533 30.2987C28.9934 29.0209 28.3954 27.7862 27.8667 26.5066C27.5178 25.5449 26.8819 24.5421 27.4504 23.5368C28.0093 24.952 28.6266 26.4186 29.4013 27.7638C30.4966 29.9402 30.0129 28.5841 29.5793 30.061ZM30.0521 30.3025C30.5891 29.3845 31.0954 28.4421 31.5258 27.4689C32.0647 26.2586 32.6634 25.0349 32.6699 23.682C33.5166 25.3059 31.4737 28.4935 30.8255 30.1098C30.6688 30.3244 30.2917 30.2197 30.0521 30.3025ZM32.3153 31.446C32.2761 31.613 32.3056 31.7897 32.0551 31.7216C32.0988 31.6259 32.1412 31.5353 32.1829 31.4447L32.1759 31.4376C32.1258 31.4845 32.0763 31.5314 32.0198 31.5841C31.8033 31.2976 31.6767 30.968 31.5566 30.6321C32.0551 30.6912 32.3718 30.9687 32.3153 31.446ZM32.9814 31.6991C32.7155 31.4704 32.5921 31.0458 32.3609 30.7541C33.0071 30.8582 33.054 31.1055 33.2834 31.6413C33.1986 31.658 33.09 31.6811 32.9814 31.6991ZM33.3238 30.4342C32.9654 30.7047 32.4078 30.3925 31.987 30.3867C31.9857 30.3745 31.9844 30.3623 31.9838 30.3501C32.3583 30.1888 32.7604 30.1111 33.1555 30.2421C33.2358 30.2659 33.4427 30.3359 33.3238 30.4342ZM33.2769 29.4655C33.2846 29.5002 33.2917 29.5349 33.2994 29.5702C32.8607 29.4404 32.7014 29.107 32.6442 28.6747C32.5183 29.1886 32.9352 29.5297 33.1793 29.9241C33.0772 29.937 32.9879 29.9479 32.8992 29.9595V29.9633H33.1947C33.196 29.9698 33.1966 29.9768 33.1973 29.9832C32.4919 29.982 31.8849 30.3456 31.1808 30.316C31.9311 28.8122 32.6975 27.3006 33.1318 25.6683C34.15 26.7231 32.9288 27.7631 33.6065 29.8406C33.4716 29.7353 33.3572 29.6177 33.2769 29.4655ZM37.1429 27.6552C36.5442 27.3083 35.6159 27.8306 35.0268 28.0657C35.0917 27.7233 35.3429 27.5293 35.623 27.3591C35.6185 27.3526 35.6133 27.3462 35.6082 27.3404C35.147 27.4445 34.8861 27.8852 34.5913 28.2179C34.5842 28.2141 34.5765 28.2102 34.5694 28.207C34.7679 27.5807 35.1039 27.0212 35.7373 26.77C35.7315 26.7597 35.7258 26.7494 35.72 26.7385C34.6549 27.1207 34.1853 28.0631 33.9572 29.1038C33.433 27.9854 34.8682 26.0428 33.2243 25.5308C33.4799 25.3342 33.744 25.27 33.5403 24.916C34.1686 24.9982 34.7262 25.5096 35.321 25.7537C35.7213 25.9657 36.1414 26.1417 36.5178 26.3974C36.6309 26.5438 36.6714 26.7443 36.7568 26.9094C36.8962 27.2858 37.2495 27.5254 37.4018 27.8871C37.3106 27.8055 37.2264 27.731 37.1429 27.6552ZM36.6727 28.0991C36.6091 28.0914 36.5467 28.083 36.4838 28.0753C36.4851 28.0625 36.487 28.0503 36.4889 28.0381C36.5519 28.0471 36.6148 28.0554 36.6778 28.0644C36.6759 28.076 36.6739 28.0875 36.6727 28.0991Z" fill="#7209B7"/>
<path d="M23.2311 34.7223C23.1219 34.7383 23.0121 34.755 22.9029 34.7724C22.4879 34.3612 22.4506 33.9341 22.4346 33.2692C22.4397 33.2685 22.4448 33.2679 22.4506 33.2679C22.6401 33.785 22.8508 34.3021 23.2254 34.7171C23.2273 34.7191 23.2292 34.721 23.2311 34.7223Z" fill="#7209B7"/>
<path d="M22.3098 30.2916C22.3721 30.043 22.3111 29.6949 22.6079 29.6056C22.8289 29.531 23.0479 29.3769 23.2766 29.3589C22.9625 29.6788 22.3625 29.7848 22.3451 30.2974C22.3336 30.2955 22.322 30.2936 22.3105 30.2916H22.3098Z" fill="#7209B7"/>
<path d="M23.0074 27.5493C22.8109 27.7773 22.9882 28.254 22.8147 28.3471C22.6683 28.0818 22.7402 27.6713 23.0094 27.5512L23.0074 27.5493Z" fill="#7209B7"/>
<path d="M22.9562 28.9722C22.6311 28.9658 22.4615 29.1649 22.3472 29.4495C22.3529 29.0345 22.5328 28.7743 22.9562 28.9722Z" fill="#7209B7"/>
<path d="M22.6664 27.9797C22.6799 28.0953 22.6921 28.1968 22.7043 28.3028C22.5032 28.2945 22.5019 28.0561 22.6664 27.9797Z" fill="#7209B7"/>
<path d="M24.6823 32.8799C24.5988 33.0765 24.4851 33.1767 24.3335 33.1869C24.5159 33.1574 24.5795 32.9974 24.6823 32.8799Z" fill="#7209B7"/>
<path d="M23.0095 27.5512C23.1174 27.4998 23.2253 27.4478 23.3333 27.3964C23.3371 27.4047 23.341 27.4131 23.3448 27.4214C23.2324 27.4638 23.12 27.5069 23.0076 27.5493L23.0095 27.5512Z" fill="#7209B7"/>
<path d="M30.3706 30.7664C30.4869 30.7516 30.6025 30.6957 30.7207 30.7137C30.6044 30.7388 30.4888 30.7638 30.3725 30.7882L30.3706 30.7657V30.7664Z" fill="#7209B7"/>
<path d="M30.7838 30.8287C30.719 30.8229 30.6547 30.8165 30.5898 30.8107C30.5911 30.7998 30.5918 30.7895 30.5931 30.7786C30.6579 30.785 30.7222 30.7921 30.7871 30.7985C30.7858 30.8081 30.7851 30.8184 30.7838 30.8281V30.8287Z" fill="#7209B7"/>
<path d="M22.5508 29.5908C22.5842 29.5233 22.6176 29.4546 22.721 29.4469C22.6568 29.5015 22.6041 29.5458 22.5508 29.5908Z" fill="#7209B7"/>
<path d="M35.783 33.7574C35.9905 33.6385 36.259 33.6533 36.4915 33.5653C36.3566 33.7799 36.0887 33.848 35.783 33.7574Z" fill="#7209B7"/>
<path d="M30.586 22.9972C30.498 22.8771 30.5481 22.6844 30.5102 22.5385C30.2308 22.0741 30.0785 22.2584 30.0361 22.7113C29.979 22.5854 29.8531 22.4107 29.7387 22.5719C29.7387 22.6554 29.7856 22.7415 29.7901 22.8295C29.686 22.7769 29.6147 22.6644 29.4863 22.7203C29.3212 22.3477 29.0404 22.642 28.761 22.4505L28.7668 22.4255H29.3096L29.3134 22.3889C28.8946 22.3709 28.7558 22.0561 28.4475 21.8338C28.4475 21.8235 28.4475 21.8133 28.4475 21.8023C28.849 21.6295 29.034 21.74 29.4233 21.8325C29.4272 21.8242 29.4316 21.8152 29.4355 21.8068C29.1143 21.5595 28.8342 21.3071 28.4282 21.5486C28.4893 21.3295 28.6466 21.1831 28.7905 21.0495C29.1426 21.3302 29.5845 21.4882 29.9276 21.7805C29.7113 21.7522 29.5788 21.7565 29.5299 21.7934C29.6642 22.0471 29.9539 21.8981 30.1691 21.8621C30.2314 21.8486 30.2905 21.8255 30.3207 21.9148C30.4518 22.0034 30.6702 21.9308 30.8237 21.9257C30.9355 21.9051 30.9792 21.7972 31.0447 21.6874C30.8629 21.7323 30.703 21.7722 30.5436 21.812C30.5398 21.8017 30.5359 21.7914 30.5314 21.7811C30.9201 21.5268 31.3132 21.2788 31.7424 21.0906C31.7398 21.0771 31.7372 21.0629 31.7346 21.0495C31.4398 20.982 31.1526 21.1439 30.852 21.1394C31.0158 21.0109 31.5888 20.9666 31.5484 20.7379C31.2451 20.8034 30.9451 20.8683 30.6458 20.9332C30.879 20.7205 31.4398 20.5375 31.6813 20.7437C31.6813 21.0886 32.025 21.2274 32.0809 21.5544C31.8207 21.388 31.6042 21.4831 31.3878 21.6617C31.3916 21.6726 31.3961 21.6835 31.4 21.6944C31.6633 21.6771 31.9055 21.6405 32.1111 21.8422C31.8252 22.0856 31.5432 22.2482 31.2092 22.4088C31.3922 22.3799 31.5747 22.3503 31.7591 22.3208C31.6139 22.6002 31.5291 22.534 31.2528 22.527C30.9972 22.615 31.4462 22.6702 30.773 22.8315C30.7653 22.7884 30.7608 22.7602 30.7531 22.7184C30.6349 22.782 30.6342 22.9079 30.5828 23.0017L30.586 22.9991V22.9972Z" fill="#7209B7"/>
<path d="M30.0084 21.2261C29.5915 21.1702 29.2845 20.8619 28.8945 20.7418C29.3057 20.8092 29.6789 20.9653 30.0084 21.2261Z" fill="#7209B7"/>
<path d="M30.4151 20.9595C30.0772 20.9402 29.7599 20.8413 29.447 20.7218C29.4483 20.7141 29.4502 20.7064 29.4515 20.6987C29.7798 20.7552 30.0824 20.9216 30.4151 20.9595Z" fill="#7209B7"/>
<path d="M28.9447 20.5638C29.0365 20.5741 29.1278 20.585 29.2241 20.5959C29.2074 20.5998 29.1952 20.6024 29.165 20.6094C29.244 20.6377 29.3089 20.6615 29.3738 20.6846C29.3719 20.691 29.37 20.6974 29.3674 20.7032C29.2248 20.6615 29.0828 20.6191 28.9402 20.5773C28.9415 20.5728 28.9428 20.5677 28.944 20.5632L28.9447 20.5638Z" fill="#7209B7"/>
<path d="M34.0807 25.2675C33.9651 25.2129 33.8578 25.1621 33.7505 25.112C33.7518 25.1075 33.7537 25.103 33.755 25.0985C34.5374 25.4602 35.2961 25.8771 36.0644 26.269C36.2134 26.3666 36.4267 26.4161 36.4826 26.6043C36.6194 26.9114 36.6464 27.3141 36.9824 27.469C36.8436 27.4182 36.5809 27.4921 36.5192 27.3193C36.3952 27.081 36.4023 26.6133 36.1171 26.5285C35.5319 26.0204 34.7751 25.7814 34.0916 25.4345C34.0164 25.3992 34.01 25.3433 34.08 25.2675H34.0807Z" fill="#7209B7"/>
<path d="M23.6821 26.6544C23.6301 26.7469 23.5703 26.8317 23.4431 26.867C23.614 25.9529 24.5596 25.8096 25.2971 25.5289C25.3003 25.5353 25.3041 25.5417 25.3074 25.5482C24.7819 25.9362 23.914 25.9689 23.6821 26.6544Z" fill="#7209B7"/>
<path d="M23.6821 26.6544C23.8055 26.4758 23.8967 26.2445 24.1363 26.2034C23.8941 26.3216 23.8222 26.5812 23.6686 26.772C23.6609 26.7681 23.6532 26.7636 23.6455 26.7597C23.6577 26.7244 23.6693 26.6897 23.6815 26.6544H23.6821Z" fill="#7209B7"/>
<path d="M27.575 24.6424C27.9533 25.5906 28.3754 26.5188 28.8533 27.4381C28.7017 27.3398 27.7137 25.1724 27.575 24.6424Z" fill="#7209B7"/>
<path d="M7.33677 41.5016C12.6288 38.4765 18.2203 36.541 24.1721 35.7579C24.5556 35.7071 24.8723 36.0553 24.7875 36.4324L24.0096 39.9033C23.9608 40.1217 23.7847 40.2887 23.5644 40.3298C18.8588 41.1945 15.3282 42.6938 10.5706 44.9114C10.3689 45.0052 10.1312 44.9705 9.96482 44.8234L7.24234 42.4035C6.95776 42.1504 7.00529 41.6917 7.33613 41.5028L7.33677 41.5016Z" fill="#333333"/>
<path d="M52.1672 41.7225C46.7511 38.6031 40.6933 36.5198 34.5873 35.7354C34.2944 35.6975 34.0586 35.9718 34.1408 36.2557L35.2072 39.9405C35.2502 40.0902 35.3755 40.2013 35.5284 40.229C40.3265 41.0994 44.0755 42.7298 48.9224 44.9911C49.0702 45.0598 49.2455 45.0347 49.3676 44.9268L52.2353 42.3849C52.4447 42.1992 52.41 41.8626 52.1672 41.7232V41.7225Z" fill="#333333"/>
<path d="M26.0813 34.6767C26.5027 35.1784 27.598 36.453 28.0329 36.9579C28.1145 37.053 28.2674 37.0253 28.3111 36.9078C28.5404 36.2885 29.1218 34.7345 29.4076 34.105C29.4603 33.9887 29.3646 33.8583 29.238 33.8744C28.2044 34.0035 27.1817 34.1814 26.1712 34.4108C26.0517 34.4377 26.0036 34.5829 26.0819 34.6767H26.0813Z" fill="#333333"/>
<path d="M30.3154 33.6418C29.3493 35.5163 28.782 37.5302 28.7011 39.7144C28.6908 39.9855 28.8803 40.2238 29.1456 40.2784L30.8692 40.633C31.1589 40.6928 31.4435 40.5155 31.5193 40.2296C31.9651 38.5439 32.5664 36.9302 33.3636 35.4071C33.4998 35.1463 33.4111 34.8251 33.1593 34.6729L31.0972 33.4247C30.8229 33.2583 30.4625 33.3566 30.3161 33.6418H30.3154Z" fill="#333333"/>
<path d="M25.5167 36.1709C23.8677 41.4765 22.976 47.3204 23.2022 53.9602C23.2092 54.1748 23.3403 54.3656 23.5369 54.4517L27.2519 56.0692C27.6431 56.2395 28.0728 55.924 28.0272 55.4994C27.3996 49.66 27.46 43.9998 28.1846 38.3577C28.2039 38.2067 28.1608 38.0551 28.0651 37.9369L26.4816 35.984C26.2009 35.6377 25.6491 35.7457 25.5167 36.1716V36.1709Z" fill="#333333"/>
<path d="M34.0509 38.102C35.583 43.2457 36.5036 49.0478 36.546 55.0645C36.5479 55.3208 36.3725 55.545 36.1239 55.6074L32.1488 56.6011C31.8006 56.6885 31.462 56.4277 31.4569 56.0686C31.3728 50.4245 31.5398 47.35 31.4717 41.79C31.4698 41.6416 31.5738 41.5119 31.7196 41.4829C31.8096 41.465 31.8828 41.4001 31.9117 41.3134L32.9877 38.0847C33.1599 37.5682 33.8948 37.5797 34.0503 38.1014L34.0509 38.102Z" fill="#333333"/>
<path d="M40.1761 43.1165C39.3571 43.7313 38.4808 44.2728 37.5564 44.7334C37.1356 44.9428 36.8999 45.4034 36.9705 45.8679C37.196 47.3351 37.3708 48.8165 37.4935 50.3011C37.5545 51.0418 38.3157 51.5126 39.0018 51.2274C41.6478 50.1276 44.0504 48.5589 46.1029 46.624C46.6675 46.0921 46.5037 45.1529 45.7958 44.8362C44.2162 44.1289 42.7174 43.5013 41.2052 42.9617C40.8571 42.8377 40.471 42.8949 40.1755 43.1165H40.1761ZM29.9723 6.04625C16.9573 6.06167 6.5048 16.5366 6.51637 29.5516C6.51894 32.6685 7.12921 35.6441 8.23542 38.3647C8.47311 38.9486 9.15919 39.2017 9.72579 38.9261C11.0009 38.3062 12.2935 37.7467 13.6014 37.2482C14.1725 37.0304 14.4583 36.3906 14.2316 35.8233C13.4543 33.8775 13.0271 31.7537 13.0271 29.531C13.0271 20.1642 20.7789 12.4799 30.1451 12.5576C39.4521 12.6353 46.974 20.2047 46.974 29.5304C46.974 31.87 46.5005 34.0985 45.6442 36.1266C45.4033 36.6976 45.6725 37.3516 46.2487 37.5797C47.5566 38.0974 48.8453 38.6717 50.1076 39.3006C50.6703 39.5807 51.3551 39.336 51.6018 38.7585C52.8134 35.9255 53.484 32.8066 53.484 29.5304C53.484 16.5514 42.9545 6.03147 29.9723 6.04625ZM13.6708 46.4075C15.6468 48.3193 17.9568 49.8874 20.5052 51.0154C21.2099 51.3276 22.0084 50.8201 22.0322 50.0499C22.081 48.503 22.1922 46.9799 22.3663 45.476C22.417 45.0392 22.1973 44.6146 21.8125 44.4019C21.0513 43.9818 20.3254 43.5058 19.6418 42.9777C19.3489 42.7516 18.9648 42.6874 18.6147 42.8049C17.0639 43.3266 15.5613 43.9355 13.9932 44.6268C13.2866 44.9383 13.1157 45.8698 13.6708 46.4069V46.4075ZM28.7568 46.9645C28.7421 48.8171 28.7999 50.6769 28.9322 52.5552C28.9496 52.8051 29.1564 52.9998 29.4063 53.0056C29.5361 53.0081 29.6645 53.0101 29.7815 53.0113C30.0506 53.0139 30.2697 52.7961 30.2703 52.527C30.2723 51.1561 30.2857 49.9066 30.298 48.6797C30.3031 48.124 30.3095 47.5638 30.3147 46.9882C30.3172 46.7216 30.1039 46.5026 29.8374 46.4987C29.6645 46.4961 29.4635 46.4923 29.2598 46.4846C28.9875 46.4743 28.7594 46.6914 28.7575 46.9638L28.7568 46.9645Z" fill="#333333"/>
<path d="M10.8854 24.4979C11.1013 24.5448 11.2388 24.758 11.1919 24.9745L10.9285 26.1848C10.8816 26.4006 10.6683 26.5381 10.4518 26.4912C10.236 26.4443 10.0985 26.231 10.1454 26.0146L10.4088 24.8043C10.4557 24.5884 10.669 24.451 10.8854 24.4979Z" fill="white"/>
<path d="M11.035 19.6272L11.7385 19.9407L11.4038 20.6923L13.5301 21.6398L13.135 22.5276L11.008 21.5801L10.6766 22.324L9.97314 22.0105L11.035 19.6278V19.6272Z" fill="white"/>
<path d="M14.9995 18.3096L14.404 19.1531L14.6982 19.5482L14.1098 20.3814L12.2327 17.6685L12.8789 16.7531L16.0614 17.6184L15.4704 18.4548L14.9995 18.3096ZM14.2665 18.0809L13.4005 17.8124L13.9434 18.5383L14.2665 18.0809Z" fill="white"/>
<path d="M16.2134 13.173L16.744 13.7313L16.1479 14.2985L17.7526 15.9855L17.0485 16.6548L15.4438 14.9679L14.8541 15.5287L14.3235 14.9705L16.2134 13.1724V13.173Z" fill="white"/>
<path d="M20.3814 13.4608L19.5097 14.0152L19.6317 14.4925L18.7716 15.0398L18.0649 11.8169L19.0106 11.2156L21.6264 13.2238L20.7624 13.7737L20.3821 13.4608H20.3814ZM19.7898 12.9713L19.0909 12.3944L19.3176 13.272L19.7904 12.9713H19.7898Z" fill="white"/>
<path d="M24.763 8.74432L25.7806 11.6711L24.8671 11.9884L24.3596 10.5295L24.4161 12.1452L23.6305 12.4182L22.6727 11.1154L23.1802 12.5749L22.2622 12.8942L21.2446 9.96745L22.3688 9.57687L23.6241 11.1096L23.6414 9.13426L24.7618 8.74497L24.763 8.74432Z" fill="white"/>
<path d="M27.3925 9.11498L27.4407 9.49271L28.396 9.37194L28.4878 10.0972L27.5326 10.2186L27.5878 10.6529L28.6728 10.5154L28.7705 11.2837L26.7212 11.5432L26.3313 8.46937L28.3806 8.20984L28.4782 8.97815L27.3925 9.11562V9.11498Z" fill="white"/>
<path d="M35.1616 8.72957L34.6759 11.79L33.7207 11.6383L33.9629 10.1127L33.2498 11.5638L32.4288 11.4334L32.1995 9.83321L31.9573 11.3589L30.9976 11.2067L31.4832 8.14627L32.6588 8.33257L33.0417 10.2765L33.9899 8.54392L35.1609 8.72957H35.1616Z" fill="white"/>
<path d="M37.5821 12.4028L36.6262 12.0122L36.307 12.388L35.3633 12.0019L37.5847 9.56274L38.6215 9.98673L38.4943 13.2822L37.5462 12.8949L37.5815 12.4034L37.5821 12.4028ZM37.6399 11.637L37.7068 10.7332L37.1215 11.4251L37.6399 11.637Z" fill="white"/>
<path d="M39.4927 13.6433C39.388 13.3657 39.4195 13.0812 39.5878 12.7901L40.4493 13.36C40.3632 13.5167 40.3799 13.6343 40.4987 13.7133C40.5424 13.7422 40.5861 13.7563 40.6304 13.7557C40.6747 13.7557 40.7113 13.7332 40.7403 13.6895C40.7807 13.6285 40.7801 13.5578 40.7396 13.4762C40.6991 13.3953 40.6253 13.2842 40.5186 13.1441C40.3921 12.9764 40.2925 12.8287 40.2218 12.7009C40.1505 12.573 40.1113 12.4304 40.1043 12.2717C40.0972 12.1131 40.1505 11.9505 40.2636 11.7842C40.3747 11.6165 40.5128 11.5021 40.6767 11.4411C40.8411 11.3801 41.0184 11.3692 41.2079 11.4071C41.3974 11.445 41.5863 11.5265 41.7739 11.6505C42.0899 11.86 42.2929 12.0989 42.3822 12.3681C42.4715 12.6373 42.4336 12.9077 42.2679 13.1794L41.3955 12.6019C41.4411 12.5274 41.4578 12.4632 41.4443 12.4086C41.4308 12.3546 41.4 12.3109 41.3518 12.2788C41.3178 12.2563 41.2818 12.2492 41.2452 12.2576C41.2079 12.2666 41.1758 12.291 41.1482 12.3328C41.1096 12.3912 41.1103 12.4606 41.1495 12.5409C41.1893 12.6212 41.2612 12.7349 41.3672 12.882C41.4899 13.051 41.5857 13.1981 41.6544 13.324C41.7231 13.4499 41.7636 13.5886 41.7752 13.7396C41.7874 13.8912 41.743 14.0422 41.6435 14.1931C41.5388 14.3512 41.4064 14.4674 41.2452 14.5413C41.0846 14.6152 40.9066 14.6383 40.7113 14.6107C40.5161 14.5831 40.3163 14.5015 40.112 14.3666C39.803 14.1623 39.5961 13.9208 39.4908 13.6433H39.4927Z" fill="white"/>
<path d="M45.6892 14.9865L45.1567 15.5435L44.5618 14.9749L42.9526 16.6574L42.2505 15.9861L43.8597 14.3036L43.2713 13.7409L43.8038 13.1846L45.6886 14.9871L45.6892 14.9865Z" fill="white"/>
<path d="M46.5019 17.2375L46.1961 17.4642L46.7697 18.2377L46.1826 18.6732L45.6089 17.8998L45.2575 18.1606L45.9096 19.0394L45.2877 19.5013L44.0569 17.8426L46.5449 15.9964L47.7757 17.655L47.1539 18.1169L46.5019 17.2381V17.2375Z" fill="white"/>
<path d="M46.4686 21.6533L47.2028 20.6358L47.2009 20.6319L46.2065 21.1291L45.7722 20.2599L48.5435 18.8749L49.1891 20.1668C49.3016 20.391 49.3574 20.603 49.3574 20.8021C49.3574 21.0013 49.3086 21.1747 49.2116 21.3225C49.1146 21.4709 48.9797 21.5878 48.8075 21.6739C48.6219 21.7664 48.4317 21.7972 48.2371 21.7657C48.0418 21.7343 47.8645 21.6379 47.7058 21.476L46.9465 22.6092L46.4692 21.654L46.4686 21.6533ZM47.7797 20.3422L47.9519 20.6865C47.9936 20.77 48.0437 20.8233 48.1028 20.8458C48.1619 20.8683 48.2313 20.8599 48.3123 20.8195C48.3855 20.7829 48.4317 20.7328 48.4523 20.6685C48.4722 20.6043 48.4626 20.5323 48.4221 20.4514L48.2499 20.1071L47.7804 20.3415L47.7797 20.3422Z" fill="white"/>
<path d="M49.4928 26.2304C49.2763 26.2773 49.0637 26.1398 49.0168 25.9233L48.756 24.7124C48.7091 24.4959 48.8466 24.2833 49.0631 24.2364C49.2796 24.1895 49.4922 24.327 49.5391 24.5435L49.7999 25.7544C49.8468 25.9709 49.7093 26.1835 49.4928 26.2304Z" fill="white"/>
<path d="M11.9569 41.8035C12.0533 41.8504 12.124 41.923 12.1709 42.0206C12.2396 42.1645 12.2434 42.3013 12.1831 42.4305C12.1227 42.5602 12.0032 42.6681 11.8246 42.7568C11.4906 42.9225 11.3248 43.0073 10.994 43.1808C10.7036 42.6277 10.4133 42.0746 10.1235 41.5215C10.4576 41.3461 10.6259 41.26 10.9631 41.0923C11.143 41.0031 11.3036 40.9722 11.443 40.9986C11.5824 41.0255 11.6858 41.109 11.752 41.2478C11.7996 41.3467 11.8124 41.4425 11.7906 41.5343C11.7694 41.6262 11.7199 41.7058 11.6434 41.7726C11.7559 41.7457 11.8599 41.7553 11.9563 41.8022L11.9569 41.8035ZM10.9471 41.9345C11.0441 41.8851 11.0923 41.8607 11.1893 41.8118C11.31 41.7514 11.3467 41.6731 11.2991 41.5761C11.2497 41.4759 11.1636 41.4559 11.0415 41.517C10.9439 41.5658 10.8951 41.5908 10.7974 41.6403C10.8572 41.7579 10.8873 41.8163 10.9471 41.9339V41.9345ZM11.6499 42.1915C11.6248 42.1407 11.5895 42.1093 11.5445 42.0983C11.4996 42.0874 11.4475 42.0958 11.3891 42.1253C11.2792 42.1806 11.224 42.2082 11.1148 42.2634C11.1764 42.3849 11.2073 42.4452 11.2689 42.5666C11.3788 42.5108 11.4334 42.4831 11.5432 42.4279C11.6621 42.3681 11.6974 42.2898 11.6492 42.1915H11.6499Z" fill="#707070"/>
<path d="M12.6804 40.7705C12.7388 40.6896 12.8133 40.6292 12.9046 40.5887C12.9945 40.7917 13.0395 40.8932 13.1294 41.0968C13.0748 41.1213 13.0472 41.1335 12.9926 41.1579C12.8866 41.2054 12.8165 41.2613 12.7838 41.3249C12.751 41.3885 12.7574 41.4701 12.8031 41.5703C12.9116 41.8073 12.9656 41.9255 13.0735 42.1626C12.8834 42.2493 12.7883 42.2936 12.5988 42.3829C12.3444 41.8433 12.2172 41.5735 11.9622 41.0345C12.1581 40.942 12.2564 40.8964 12.4536 40.8065C12.4973 40.9022 12.5191 40.9504 12.5628 41.0461C12.5821 40.9433 12.6213 40.8521 12.6797 40.7712L12.6804 40.7705Z" fill="#707070"/>
<path d="M13.2218 40.8348C13.2282 40.7063 13.2654 40.5932 13.3323 40.4969C13.3997 40.4005 13.4903 40.3279 13.604 40.2797C13.7023 40.238 13.7954 40.2213 13.8821 40.2296C13.9689 40.238 14.0453 40.2656 14.1102 40.3138C14.0787 40.2373 14.0633 40.1988 14.0318 40.1217C14.2323 40.0395 14.3325 39.999 14.5335 39.9193C14.7532 40.4737 14.8631 40.7512 15.0822 41.3056C14.8875 41.3827 14.7905 41.4219 14.5971 41.5009C14.5657 41.4245 14.5502 41.3859 14.5188 41.3088C14.5072 41.3885 14.4738 41.4611 14.4198 41.5279C14.3659 41.5947 14.292 41.6474 14.1989 41.6866C14.089 41.7328 13.9779 41.747 13.8642 41.7283C13.7505 41.7097 13.6445 41.659 13.5462 41.5754C13.4479 41.4919 13.3676 41.3795 13.3053 41.2382C13.243 41.0969 13.2147 40.9626 13.2218 40.8335V40.8348ZM14.1545 40.6318C14.0839 40.6016 14.0126 40.6016 13.94 40.6318C13.8661 40.6626 13.8153 40.7133 13.7877 40.784C13.7601 40.8547 13.7659 40.9343 13.8038 41.0243C13.841 41.1123 13.895 41.172 13.965 41.2029C14.035 41.2337 14.1063 41.2343 14.1789 41.2035C14.2502 41.1739 14.2997 41.1238 14.328 41.0525C14.3562 40.9812 14.3517 40.9009 14.3151 40.811C14.2785 40.7223 14.2252 40.6626 14.1552 40.6324L14.1545 40.6318Z" fill="#707070"/>
<path d="M15.6725 40.615C15.9134 40.5245 16.0348 40.4808 16.277 40.394C16.3354 40.5572 16.3643 40.6388 16.4228 40.802C15.9661 40.9651 15.7387 41.0499 15.2864 41.2266C15.2267 41.0731 15.1965 40.9966 15.1367 40.8424C15.2665 40.5142 15.3333 40.3504 15.4714 40.0234C15.2453 40.1082 15.1322 40.1512 14.9074 40.2386L14.75 39.8352C15.208 39.6566 15.438 39.5705 15.9005 39.4054C15.9558 39.5609 15.984 39.6379 16.0393 39.7934C15.8883 40.1217 15.8151 40.2861 15.6725 40.6157V40.615Z" fill="#707070"/>
<path d="M16.1043 39.1054C16.0324 39.0771 15.9842 39.027 15.9585 38.9551C15.9328 38.8819 15.9386 38.8105 15.9771 38.7431C16.0157 38.675 16.0806 38.6249 16.1724 38.5934C16.2624 38.5626 16.344 38.5619 16.4159 38.5915C16.4879 38.621 16.5367 38.6731 16.5611 38.7469C16.5855 38.8189 16.5778 38.8883 16.5386 38.9551C16.4994 39.0219 16.4358 39.0701 16.3465 39.1009C16.2559 39.1324 16.175 39.1337 16.1031 39.1054H16.1043ZM16.6459 39.1452C16.8367 39.7105 16.9324 39.9932 17.1232 40.5579C16.9253 40.6247 16.8264 40.6587 16.6292 40.7281C16.4313 40.1654 16.3324 39.884 16.1345 39.3212C16.3388 39.2493 16.441 39.214 16.6459 39.1452Z" fill="#707070"/>
<path d="M17.3106 38.4277C17.5085 39.0527 17.7057 39.6778 17.9036 40.3035C17.7044 40.3664 17.6048 40.3986 17.4063 40.4641C17.2008 39.8416 16.9959 39.2185 16.7903 38.596C16.9978 38.5272 17.1018 38.4938 17.3106 38.4277Z" fill="#707070"/>
<path d="M17.7276 38.5722C17.6569 38.5414 17.6107 38.4894 17.5882 38.4168C17.565 38.3422 17.574 38.2716 17.6152 38.2054C17.6563 38.1392 17.7231 38.0917 17.8162 38.0634C17.9074 38.0358 17.989 38.0384 18.0597 38.0712C18.1304 38.1039 18.1773 38.1579 18.1991 38.2324C18.2203 38.3056 18.21 38.3744 18.1689 38.4393C18.1271 38.5041 18.0616 38.5504 17.9717 38.5774C17.8798 38.605 17.7989 38.6037 17.7282 38.5722H17.7276ZM18.2672 38.6326C18.4361 39.205 18.5203 39.4909 18.6892 40.0632C18.4888 40.1223 18.3886 40.1525 18.1888 40.2142C18.0128 39.6444 17.9248 39.3592 17.7494 38.7894C17.9563 38.7258 18.0597 38.6943 18.2672 38.6333V38.6326Z" fill="#707070"/>
<path d="M18.6571 38.8735C18.6808 38.747 18.7322 38.6397 18.8119 38.553C18.8916 38.4662 18.9911 38.4065 19.11 38.3737C19.2128 38.3455 19.3072 38.3416 19.3926 38.3609C19.4781 38.3801 19.5494 38.418 19.6078 38.4746C19.5866 38.3943 19.5764 38.3545 19.5552 38.2742C19.7646 38.2195 19.8699 38.1926 20.08 38.1399C20.2239 38.7187 20.2965 39.0084 20.4404 39.5872C20.2374 39.638 20.1359 39.6637 19.9335 39.717C19.9123 39.6367 19.902 39.5969 19.8808 39.5166C19.8584 39.5936 19.816 39.6617 19.7537 39.7208C19.6913 39.7799 19.611 39.8223 19.5134 39.8493C19.3984 39.8808 19.286 39.8795 19.1761 39.8461C19.0656 39.8127 18.9674 39.7485 18.8813 39.6521C18.7952 39.5564 18.7303 39.4343 18.6873 39.2859C18.6442 39.1375 18.6346 39.0007 18.6577 38.8742L18.6571 38.8735ZM19.6085 38.7958C19.5423 38.7566 19.4716 38.747 19.3958 38.7675C19.3181 38.7881 19.2609 38.8318 19.2243 38.8979C19.1877 38.9641 19.1826 39.0444 19.2083 39.1382C19.234 39.2307 19.2789 39.2962 19.3444 39.3367C19.41 39.3772 19.48 39.3861 19.5564 39.3656C19.631 39.3457 19.6868 39.3026 19.7241 39.2358C19.7614 39.169 19.7678 39.0887 19.7434 38.9943C19.719 38.9018 19.674 38.8356 19.6085 38.7964V38.7958Z" fill="#707070"/>
<path d="M21.8185 37.9061C21.9444 37.9966 22.026 38.138 22.0645 38.3288C22.1339 38.6692 22.1686 38.8401 22.2373 39.1806C22.0317 39.2223 21.9296 39.2435 21.7247 39.2879C21.6572 38.975 21.6232 38.8189 21.5557 38.506C21.5377 38.4232 21.5011 38.3622 21.4465 38.3243C21.3919 38.2864 21.3264 38.2754 21.2519 38.2921C21.1735 38.3095 21.117 38.3474 21.0836 38.4046C21.0501 38.4624 21.0424 38.5324 21.0617 38.6153C21.133 38.9275 21.1683 39.0836 21.2397 39.3951C21.0354 39.442 20.9339 39.4658 20.7302 39.5146C20.5902 38.9345 20.5202 38.6448 20.3801 38.0647C20.5908 38.014 20.6962 37.9889 20.9075 37.9407C20.9262 38.0236 20.9358 38.0654 20.9551 38.1482C20.9865 38.0718 21.0373 38.0043 21.1073 37.9465C21.1773 37.8881 21.2641 37.8476 21.3668 37.8251C21.5416 37.7872 21.6925 37.8142 21.8185 37.9048V37.9061Z" fill="#707070"/>
<path d="M38.0326 37.3414C37.8907 37.8759 37.8226 38.1438 37.6889 38.6796C37.6324 38.907 37.5271 39.0663 37.3722 39.1588C37.2174 39.2513 37.0311 39.2725 36.8108 39.225C36.5763 39.1742 36.4029 39.0714 36.2898 38.914C36.1767 38.7567 36.1453 38.5569 36.1986 38.314C36.4311 38.3603 36.5468 38.3841 36.778 38.4322C36.7433 38.5922 36.7857 38.6847 36.9039 38.7098C37.0106 38.7329 37.0787 38.6789 37.1095 38.5485C37.2367 38.0115 37.3029 37.7429 37.4384 37.2065C37.6767 37.2592 37.7956 37.2862 38.032 37.3408L38.0326 37.3414Z" fill="#707070"/>
<path d="M38.8575 37.9813C38.6796 38.6211 38.5942 38.941 38.4284 39.5821C38.2029 39.525 38.0892 39.4973 37.8618 39.4427C38.0205 38.7997 38.1027 38.4785 38.2736 37.8367C38.5074 37.8933 38.6243 37.9222 38.8569 37.9813H38.8575ZM38.3828 37.6177C38.3346 37.5483 38.3211 37.4725 38.3436 37.3903C38.3661 37.3061 38.4168 37.2445 38.4959 37.2046C38.5742 37.1648 38.6661 37.1577 38.7708 37.1841C38.8736 37.2098 38.9481 37.2579 38.9957 37.3293C39.0432 37.4006 39.0548 37.4776 39.031 37.5612C39.0079 37.6427 38.9571 37.7025 38.8794 37.741C38.8016 37.7796 38.7124 37.786 38.6109 37.7609C38.5074 37.7352 38.4316 37.6877 38.3834 37.6183L38.3828 37.6177Z" fill="#707070"/>
<path d="M40.8689 38.5402C40.6678 39.1716 40.5702 39.4883 40.3813 40.1224C40.1597 40.0556 40.0486 40.0235 39.8257 39.9592C39.8514 39.8686 39.8648 39.823 39.8912 39.7325C39.8231 39.7909 39.7409 39.8301 39.6451 39.8507C39.5494 39.8719 39.4473 39.8674 39.3394 39.8372C39.1531 39.7858 39.0227 39.6856 38.9475 39.5346C38.8723 39.3836 38.8621 39.2025 38.9199 38.9918C39.0214 38.6205 39.0728 38.4348 39.1781 38.0635C39.4087 38.1239 39.5237 38.1547 39.7524 38.2177C39.6516 38.5588 39.6021 38.7297 39.5045 39.0714C39.4788 39.162 39.4833 39.2404 39.5173 39.3059C39.5514 39.3714 39.6085 39.4151 39.6888 39.4376C39.7711 39.4607 39.843 39.453 39.906 39.4151C39.9689 39.3772 40.0139 39.3123 40.0402 39.2217C40.1411 38.8813 40.1925 38.711 40.2965 38.3706C40.5265 38.4367 40.6409 38.4708 40.8689 38.5395V38.5402Z" fill="#707070"/>
<path d="M42.3026 39.4119C42.2396 39.5937 42.2081 39.6849 42.1465 39.8667C41.6403 39.6946 41.3846 39.6117 40.8694 39.4537C40.9266 39.2699 40.9561 39.1781 41.0146 38.995C41.5343 39.155 41.7919 39.2385 42.3026 39.4119Z" fill="#707070"/>
<path d="M44.3045 39.268C44.1015 39.7806 44.0025 40.0376 43.8085 40.5528C43.7263 40.7718 43.6055 40.9164 43.4469 40.9883C43.2882 41.0603 43.1077 41.0583 42.9034 40.9838C42.6863 40.9042 42.5334 40.7802 42.4454 40.6099C42.3574 40.4397 42.3522 40.2374 42.4332 40.0035C42.649 40.0787 42.7563 40.1166 42.9708 40.1943C42.9175 40.3485 42.9464 40.4455 43.0563 40.4853C43.1552 40.5213 43.2272 40.477 43.2728 40.3511C43.4616 39.8339 43.558 39.5763 43.7552 39.0611C43.9762 39.1427 44.086 39.1845 44.3051 39.2686L44.3045 39.268Z" fill="#707070"/>
<path d="M45.0118 40.0055C44.7612 40.6177 44.6385 40.9247 44.4002 41.5401C44.1921 41.4554 44.088 41.4136 43.8779 41.3314C44.1098 40.7134 44.2287 40.405 44.4734 39.7896C44.6899 39.8744 44.7972 39.9181 45.0118 40.0055ZM44.6038 39.586C44.5666 39.5108 44.5634 39.4344 44.5948 39.356C44.627 39.2757 44.6835 39.2204 44.7632 39.1909C44.8435 39.1613 44.9321 39.1658 45.0285 39.2044C45.1229 39.2423 45.1884 39.2995 45.225 39.3759C45.261 39.4524 45.2623 39.5307 45.2295 39.6104C45.1968 39.6881 45.1409 39.7414 45.0619 39.7697C44.9829 39.798 44.8968 39.7935 44.803 39.7556C44.7073 39.717 44.6411 39.6611 44.6038 39.586Z" fill="#707070"/>
<path d="M45.7542 41.5806C45.6778 41.7618 45.6399 41.8524 45.5641 42.0335C45.4755 41.9943 45.4311 41.9751 45.3425 41.9365C44.968 41.774 44.8543 41.5016 45.011 41.1143C45.0926 40.9125 45.1337 40.8117 45.2172 40.61C45.1427 40.5791 45.1054 40.5631 45.0309 40.5322C45.1035 40.3543 45.1401 40.2656 45.2134 40.0877C45.2885 40.1185 45.3264 40.1346 45.4016 40.1661C45.4632 40.0183 45.4947 39.9444 45.5577 39.7967C45.7735 39.8873 45.8814 39.9329 46.0954 40.026C46.0311 40.1731 45.999 40.2464 45.9354 40.3941C46.0453 40.4417 46.1005 40.4661 46.2097 40.5142C46.1326 40.6903 46.0941 40.7783 46.0183 40.9543C45.9097 40.9061 45.8551 40.8823 45.7459 40.8354C45.6592 41.0391 45.6161 41.1412 45.5313 41.3455C45.514 41.3873 45.5108 41.4213 45.5217 41.447C45.5326 41.4734 45.5602 41.4958 45.6039 41.5151C45.6637 41.5414 45.6939 41.5543 45.7536 41.5806H45.7542Z" fill="#707070"/>
<path d="M46.0869 42.2082C46.0041 42.1157 45.9495 42.0162 45.9238 41.9089C45.8981 41.8016 45.9032 41.6963 45.9392 41.5922C46.1383 41.6808 46.2379 41.7258 46.4358 41.817C46.4216 41.8684 46.4268 41.9166 46.4512 41.9603C46.4756 42.004 46.5148 42.038 46.5681 42.0631C46.6092 42.0823 46.6458 42.0888 46.678 42.0823C46.7101 42.0759 46.7326 42.0579 46.7454 42.0297C46.7621 41.9924 46.755 41.9551 46.7229 41.9185C46.6914 41.8819 46.6343 41.8299 46.552 41.7676C46.4595 41.6975 46.3812 41.6339 46.3227 41.5748C46.2649 41.5164 46.2231 41.4444 46.1981 41.3603C46.173 41.2761 46.1827 41.1811 46.2283 41.077C46.2675 40.987 46.3272 40.9164 46.4075 40.865C46.4878 40.8136 46.5842 40.7879 46.6966 40.7873C46.809 40.7873 46.9311 40.8168 47.0621 40.8778C47.2561 40.9684 47.3859 41.0885 47.4508 41.2376C47.5156 41.386 47.5195 41.5434 47.4636 41.7078C47.2799 41.6192 47.188 41.5748 47.003 41.4881C47.0159 41.4354 47.0126 41.3892 46.9921 41.3481C46.9715 41.307 46.9343 41.2736 46.8797 41.2485C46.8379 41.2292 46.8019 41.2222 46.773 41.228C46.7435 41.2337 46.7229 41.2511 46.7101 41.28C46.694 41.316 46.7017 41.3526 46.7338 41.3898C46.7653 41.4271 46.8218 41.4766 46.9015 41.5376C46.9972 41.6108 47.0737 41.6783 47.1302 41.7399C47.1874 41.8016 47.2272 41.8774 47.251 41.9654C47.2741 42.0541 47.2606 42.1524 47.2105 42.2609C47.1707 42.3483 47.1103 42.4145 47.03 42.4607C46.9503 42.507 46.8565 42.5288 46.7493 42.5262C46.642 42.5237 46.5283 42.4948 46.4069 42.4376C46.2771 42.3772 46.1705 42.3008 46.0882 42.2082H46.0869Z" fill="#707070"/>
<path d="M49.4306 42.0888C49.1255 42.674 48.9752 42.9676 48.6823 43.5573C48.4889 43.4532 48.3912 43.4012 48.196 43.299C48.2371 43.2143 48.2576 43.1725 48.2987 43.0877C48.2249 43.1327 48.1414 43.1571 48.0482 43.1609C47.9551 43.1648 47.8613 43.1423 47.7662 43.0941C47.603 43.0106 47.5002 42.8892 47.4578 42.7273C47.4161 42.5654 47.4399 42.3862 47.5324 42.189C47.6949 41.8421 47.7771 41.6686 47.9441 41.3224C48.1478 41.4226 48.2486 41.4734 48.4503 41.5755C48.293 41.8928 48.2152 42.0522 48.0617 42.3708C48.0206 42.4556 48.0103 42.5333 48.0302 42.6033C48.0495 42.674 48.0951 42.7273 48.1651 42.7633C48.2371 42.8005 48.3058 42.8057 48.3713 42.7793C48.4369 42.753 48.4908 42.6978 48.5326 42.613C48.6893 42.2956 48.769 42.1376 48.9296 41.8215C49.1313 41.9269 49.2315 41.9802 49.4319 42.0881L49.4306 42.0888Z" fill="#707070"/>
</svg>
